<?xml version="1.0" standalone="no"?>
<!DOCTYPE svg PUBLIC "-//W3C//DTD SVG 20010904//EN"
 "http://www.w3.org/TR/2001/REC-SVG-20010904/DTD/svg10.dtd">
<svg version="1.0" xmlns="http://www.w3.org/2000/svg"
 width="100.000000pt" height="100.000000pt" viewBox="0 0 100.000000 100.000000"
 preserveAspectRatio="xMidYMid meet">

<g transform="translate(0.000000,100.000000) scale(0.100000,-0.100000)"
fill="#000000" stroke="none">
<path d="M340 938 c-243 -85 -371 -360 -280 -600 80 -213 316 -339 539 -287
153 35 285 158 332 310 69 222 -39 464 -251 562 -56 26 -79 31 -170 34 -90 3
-114 0 -170 -19z m255 -23 c212 -55 355 -272 316 -482 -34 -185 -176 -324
-360 -354 -75 -12 -162 1 -239 36 -75 34 -165 124 -205 204 -30 62 -32 71 -32
181 0 110 1 118 33 183 92 186 293 282 487 232z"/>
<path d="M430 913 c-8 -3 -27 -17 -42 -31 -24 -22 -28 -33 -28 -83 0 -42 5
-63 20 -82 20 -26 85 -52 102 -41 4 3 8 24 9 47 0 36 2 39 9 19 12 -28 81
-112 93 -112 4 0 19 11 32 25 20 19 25 34 25 73 0 41 -3 51 -20 55 -14 4 -20
14 -20 34 0 36 -22 69 -60 88 -28 15 -90 19 -120 8z m115 -17 c32 -14 55 -41
55 -67 0 -9 -16 -10 -60 -6 l-60 7 0 -40 c0 -36 -3 -40 -24 -40 -31 0 -86 46
-86 72 0 69 92 108 175 74z m55 -97 c0 -8 -14 -9 -44 -5 -37 6 -46 4 -55 -11
-9 -16 -10 -16 -11 5 0 20 5 22 55 22 34 0 55 -4 55 -11z m38 -34 c6 -6 -38
-55 -50 -55 -4 0 -8 5 -8 10 0 6 6 10 14 10 22 0 28 16 10 31 -13 10 -16 9
-21 -10 l-6 -22 -26 23 c-14 12 -20 16 -13 8 16 -19 15 -30 -3 -30 -15 0 -19
17 -10 43 5 11 17 12 57 6 28 -5 53 -11 56 -14z m-202 -24 c21 -5 30 -14 32
-33 3 -22 0 -26 -16 -21 -11 3 -23 14 -25 25 -4 15 -11 19 -23 14 -19 -7 -34
9 -34 38 0 18 1 18 19 2 10 -9 32 -21 47 -25z m144 -59 c0 -20 -3 -23 -12 -14
-6 6 -12 23 -13 36 0 19 2 22 12 14 7 -6 13 -22 13 -36z m46 16 c-9 -5 -16
-18 -16 -28 0 -11 -4 -20 -10 -20 -5 0 -10 9 -10 21 0 23 43 64 49 47 2 -6 -4
-15 -13 -20z m-206 12 c0 -5 -2 -10 -4 -10 -3 0 -8 5 -11 10 -3 6 -1 10 4 10
6 0 11 -4 11 -10z"/>
<path d="M493 874 c-3 -8 -1 -20 6 -27 14 -14 47 15 37 32 -10 16 -36 13 -43
-5z m32 -4 c3 -5 -1 -10 -9 -10 -9 0 -16 5 -16 10 0 6 4 10 9 10 6 0 13 -4 16
-10z"/>
<path d="M425 870 c-11 -17 5 -32 21 -19 7 6 11 15 8 20 -7 12 -21 11 -29 -1z"/>
<path d="M410 815 c-20 -24 4 -45 26 -24 13 14 13 17 1 27 -11 10 -17 9 -27
-3z m30 -9 c0 -11 -19 -15 -25 -6 -3 5 1 10 9 10 9 0 16 -2 16 -4z"/>
<path d="M325 579 c-9 -17 -14 -37 -11 -45 8 -20 34 -17 46 6 9 16 8 20 -5 20
-8 0 -15 -8 -15 -17 0 -13 -3 -14 -12 -5 -9 9 -7 19 10 42 13 16 18 30 13 30
-6 0 -18 -14 -26 -31z"/>
<path d="M562 597 c-20 -24 -25 -66 -9 -73 20 -7 39 4 31 18 -4 6 -10 5 -16
-3 -6 -10 -8 -3 -6 21 2 22 8 34 16 33 6 -2 12 2 12 7 0 14 -15 12 -28 -3z"/>
<path d="M625 598 c-3 -7 -7 -28 -9 -45 -4 -34 3 -38 39 -23 19 8 19 9 -2 9
-23 1 -33 21 -11 21 9 0 9 3 0 12 -10 10 -7 15 10 25 l23 12 -23 1 c-12 0 -25
-6 -27 -12z"/>
<path d="M392 568 c-2 -40 7 -52 32 -42 11 4 16 18 15 43 -1 37 -3 35 -13 -11
-9 -40 -24 -34 -29 10 l-4 37 -1 -37z"/>
<path d="M474 586 c-3 -8 -4 -28 -2 -44 3 -30 3 -30 33 -16 l30 14 -28 -4
c-26 -3 -27 -2 -21 30 6 34 -2 47 -12 20z"/>
<path d="M173 583 c-15 -5 -5 -33 12 -33 7 0 15 6 18 14 6 15 -10 26 -30 19z"/>
<path d="M783 583 c-15 -5 -5 -33 12 -33 7 0 15 6 18 14 6 15 -10 26 -30 19z"/>
<path d="M347 452 c-18 -20 -23 -67 -8 -76 4 -3 19 6 32 20 22 24 22 26 4 22
-11 -2 -19 -10 -17 -16 1 -7 -2 -12 -8 -12 -17 0 -11 39 10 60 11 11 16 20 12
20 -5 0 -16 -8 -25 -18z"/>
<path d="M408 425 c-2 -25 0 -45 3 -45 4 0 9 20 11 45 2 25 0 45 -3 45 -4 0
-9 -20 -11 -45z"/>
<path d="M456 439 c-10 -52 -8 -59 19 -59 50 0 57 81 8 88 -16 2 -22 -4 -27
-29z m42 -20 c-4 -28 -28 -38 -28 -11 0 11 3 28 6 37 9 23 27 3 22 -26z"/>
<path d="M555 440 c-19 -36 -21 -60 -3 -42 17 17 28 15 28 -5 0 -12 3 -14 11
-6 12 12 2 83 -12 83 -5 0 -15 -13 -24 -30z m25 -10 c0 -5 -5 -10 -11 -10 -5
0 -7 5 -4 10 3 6 8 10 11 10 2 0 4 -4 4 -10z"/>
<path d="M465 350 c-3 -5 -1 -10 4 -10 6 0 11 5 11 10 0 6 -2 10 -4 10 -3 0
-8 -4 -11 -10z"/>
<path d="M220 335 c0 -8 2 -15 4 -15 2 0 6 7 10 15 3 8 1 15 -4 15 -6 0 -10
-7 -10 -15z"/>
<path d="M367 343 c-16 -15 -5 -23 28 -21 19 1 35 6 35 10 0 5 -14 6 -31 3
-19 -4 -28 -2 -24 5 7 11 2 14 -8 3z"/>
<path d="M493 337 c-18 -5 -33 -14 -33 -20 0 -5 8 -6 18 -2 9 4 36 7 60 7 23
1 42 5 42 10 0 5 -6 8 -12 5 -7 -2 -20 -1 -28 3 -8 4 -30 2 -47 -3z"/>
<path d="M620 335 c-7 -9 -8 -15 -2 -15 5 0 12 7 16 15 3 8 4 15 2 15 -2 0 -9
-7 -16 -15z"/>
<path d="M750 341 c0 -5 -11 -8 -25 -6 -14 1 -25 -3 -25 -10 0 -7 11 -10 30
-7 17 2 30 10 30 18 0 8 -2 14 -5 14 -3 0 -5 -4 -5 -9z"/>
<path d="M245 321 c-4 -9 0 -11 11 -7 8 3 31 6 50 6 19 0 34 4 34 9 0 14 -89
7 -95 -8z"/>
<path d="M644 328 c-5 -8 -2 -9 9 -5 11 4 17 1 17 -9 0 -8 5 -12 10 -9 6 3 10
13 10 21 0 17 -36 19 -46 2z"/>
<path d="M460 255 c-15 -18 -10 -45 13 -59 34 -22 73 27 47 59 -16 19 -44 19
-60 0z"/>
</g>
</svg>
